<?xml version="1.0" standalone="no"?>
<!DOCTYPE svg PUBLIC "-//W3C//DTD SVG 20010904//EN"
 "http://www.w3.org/TR/2001/REC-SVG-20010904/DTD/svg10.dtd">
<svg version="1.0" xmlns="http://www.w3.org/2000/svg"
 width="128.000000pt" height="128.000000pt" viewBox="0 0 128.000000 128.000000"
 preserveAspectRatio="xMidYMid meet">

<g transform="translate(0.000000,128.000000) scale(0.100000,-0.100000)"
fill="" stroke="none">
<path d="M0 640 l0 -640 551 0 552 0 -26 20 c-14 11 -28 20 -31 20 -3 0 -18
10 -32 23 -14 12 -32 22 -39 22 -8 0 -60 46 -115 103 -56 56 -97 102 -93 102
4 -1 52 -40 106 -89 54 -49 130 -106 171 -128 l74 -40 7 34 c7 39 44 67 113
84 l42 11 0 559 0 559 -640 0 -640 0 0 -640z m618 594 c-7 -14 -23 -32 -37
-39 -14 -8 -20 -14 -13 -15 7 0 21 4 31 10 15 8 18 5 15 -18 -1 -15 -3 -34 -3
-42 -1 -12 -3 -12 -9 -2 -5 7 -17 10 -28 7 -19 -6 -19 -6 0 6 18 11 18 12 -5
31 -14 11 -19 21 -13 24 6 3 20 11 30 19 12 10 1 8 -29 -5 -58 -24 -57 -24
-57 -5 0 9 6 12 16 8 9 -3 19 -2 23 4 3 5 24 16 46 25 22 9 41 16 42 17 2 1
-3 -11 -9 -25z m-306 -34 c-2 -21 -10 -44 -18 -50 -11 -10 -12 -5 -7 26 5 29
3 36 -8 32 -8 -3 -13 -16 -11 -31 1 -14 -2 -28 -8 -32 -5 -3 -10 3 -10 14 0
11 -5 23 -12 27 -8 5 -9 -3 -5 -31 3 -20 8 -40 11 -42 2 -2 18 3 35 12 17 8
31 12 31 7 0 -11 -78 -47 -85 -40 -3 3 -6 29 -8 58 l-2 54 45 17 c25 9 47 17
50 18 3 1 4 -17 2 -39z m-99 -122 c-3 -5 -10 -8 -17 -8 -8 0 -11 10 -8 29 2
16 -1 39 -8 50 -9 17 -8 26 2 38 11 14 14 7 23 -43 6 -32 10 -62 8 -66z m279
80 c7 -45 0 -64 -28 -77 -13 -6 -24 -19 -24 -28 0 -14 -2 -15 -9 -4 -6 8 -16
11 -27 7 -17 -6 -17 -6 1 14 20 22 14 26 -17 9 -11 -6 -22 -8 -25 -6 -3 3 8
13 24 21 l28 16 -27 -6 c-44 -10 -33 5 25 32 28 13 41 21 27 18 -14 -4 -42
-15 -62 -25 -21 -11 -38 -17 -38 -15 0 15 13 35 21 31 4 -3 30 5 56 19 63 33
70 32 75 -6z m52 1 c8 -39 -1 -54 -20 -34 -9 8 -12 19 -9 25 3 5 1 10 -6 10
-8 0 -8 4 1 15 19 22 27 18 34 -16z m315 -19 c18 -23 57 -93 87 -158 56 -119
112 -192 147 -192 10 0 32 -7 50 -16 l32 -17 -32 -15 c-29 -14 -34 -13 -68 7
-20 11 -43 21 -52 21 -8 0 -30 16 -48 35 l-32 36 -17 -26 c-13 -20 -19 -23
-30 -13 -17 16 -16 88 1 88 7 0 13 7 13 15 0 9 -9 15 -21 15 -14 0 -19 5 -17
18 2 9 10 17 18 17 24 0 30 19 18 61 -14 46 -73 144 -88 144 -5 0 -10 5 -10
10 0 20 17 9 49 -30z m-702 -2 c-4 -36 -30 -93 -48 -103 -16 -11 -26 5 -34 52
-6 41 -6 42 32 62 51 27 54 26 50 -11z m-88 -106 c1 -20 -3 -31 -9 -27 -5 3
-10 21 -11 38 -1 31 -1 31 -10 7 -7 -19 -7 -16 -3 13 3 26 2 37 -5 32 -17 -10
-13 3 7 23 16 17 17 16 24 -18 4 -19 7 -50 7 -68z m92 25 c-13 -13 -26 -3 -16
12 3 6 11 8 17 5 6 -4 6 -10 -1 -17z m438 -104 c15 -34 47 -53 90 -53 37 0 50
-16 57 -76 4 -27 11 -54 15 -60 5 -6 0 -26 -11 -46 -10 -20 -21 -47 -23 -60
-8 -46 -18 -58 -52 -58 -27 0 -32 -3 -29 -17 3 -13 -7 -25 -34 -40 -37 -21
-41 -21 -55 -5 -13 15 -37 82 -37 105 0 5 9 6 19 2 29 -9 97 29 105 59 3 13 9
32 12 43 6 16 5 16 -9 -2 -9 -11 -17 -15 -17 -9 0 7 16 24 35 38 63 49 35 80
-40 45 -25 -12 -59 -39 -76 -60 -17 -22 -35 -37 -40 -33 -5 3 -7 10 -4 15 4 5
2 9 -3 9 -6 0 -12 -7 -16 -15 -3 -8 -15 -15 -26 -15 -11 0 -20 -4 -20 -10 0
-5 -14 -10 -31 -10 -26 0 -30 -3 -24 -17 14 -34 18 -66 8 -60 -6 4 -16 1 -22
-7 -9 -11 -8 -18 4 -30 9 -9 23 -16 31 -16 8 0 14 -6 14 -14 0 -16 -16 -16
-40 -1 -8 5 -23 8 -32 7 -13 -2 -18 3 -18 18 0 18 -4 21 -28 15 -23 -5 -31 -2
-40 17 -8 17 -11 18 -11 6 -1 -22 -38 -12 -52 13 -17 32 -29 21 -14 -13 7 -18
20 -34 29 -36 9 -2 16 -12 16 -22 0 -19 54 -80 71 -80 5 0 9 -3 9 -8 0 -4 -18
-6 -40 -4 -37 4 -40 2 -40 -22 0 -21 -5 -26 -24 -26 -24 0 -24 -1 -10 -27 16
-32 19 -67 5 -58 -13 7 -4 -63 14 -114 7 -21 11 -42 8 -45 -4 -3 4 -17 17 -31
l23 -25 -26 0 c-39 0 -75 -17 -103 -47 -21 -24 -21 -21 7 25 17 29 42 60 54
68 21 14 22 19 13 47 -6 18 -17 39 -24 48 -8 8 -14 25 -14 37 0 12 -4 22 -10
22 -5 0 -10 10 -10 23 0 18 -2 19 -10 7 -8 -12 -10 -10 -10 10 -1 49 -10 68
-32 62 -18 -4 -20 -2 -16 16 4 12 3 22 -1 22 -4 0 -7 18 -7 41 1 22 -5 45 -11
51 -7 6 -13 17 -13 25 0 11 7 13 30 8 26 -6 29 -4 24 12 -6 14 -4 16 6 6 18
-17 40 -5 40 22 0 29 25 38 70 25 48 -14 57 -13 80 10 26 26 28 72 3 64 -13
-4 -14 -3 -5 3 9 7 7 23 -13 74 -14 37 -18 55 -9 42 9 -12 25 -32 35 -45 11
-12 27 -37 36 -55 8 -18 20 -33 26 -33 7 0 7 4 -1 12 -7 7 -12 20 -12 30 0 10
-4 18 -9 18 -15 0 -20 39 -7 50 7 5 15 8 17 6 10 -11 50 32 55 59 3 17 9 34
15 40 5 5 9 17 9 27 0 9 9 22 20 28 15 8 20 8 20 -2 0 -9 2 -10 8 -2 9 15 51
22 77 14 11 -4 26 -21 34 -37z m281 36 c0 -5 -4 -9 -9 -9 -5 0 -16 -20 -24
-45 -13 -38 -13 -45 -2 -45 19 0 27 -17 20 -41 -6 -19 -8 -20 -26 -3 -15 13
-19 31 -19 79 0 34 2 64 4 66 9 8 56 7 56 -2z m32 -226 c10 -9 18 -20 18 -25
0 -13 -37 9 -44 27 -7 20 3 19 26 -2z m-187 -193 c3 -5 1 -10 -4 -10 -6 0 -11
5 -11 10 0 6 2 10 4 10 3 0 8 -4 11 -10z m-35 -19 c0 -5 -7 -11 -14 -14 -10
-4 -13 -1 -9 9 6 15 23 19 23 5z m-80 -109 c-14 -2 -20 -9 -16 -18 3 -7 -3
-18 -14 -24 -30 -16 -32 -12 -10 30 18 36 22 39 41 27 20 -12 20 -12 -1 -15z
m110 -69 c-1 -24 -2 -26 -11 -10 -5 9 -7 22 -4 27 10 17 15 11 15 -17z m550
-70 c-1 -19 -18 -33 -34 -27 -15 6 -14 8 6 19 29 17 28 16 28 8z m-899 -156
c-10 -9 -11 -8 -5 6 3 10 9 15 12 12 3 -3 0 -11 -7 -18z m24 -47 c-3 -5 -12
-7 -20 -3 -21 7 -19 13 6 13 11 0 18 -4 14 -10z m-5 -30 c0 -5 -4 -10 -10 -10
-5 0 -10 5 -10 10 0 6 5 10 10 10 6 0 10 -4 10 -10z"/>
<path d="M445 1130 c-3 -5 -2 -10 4 -10 5 0 13 5 16 10 3 6 2 10 -4 10 -5 0
-13 -4 -16 -10z"/>
<path d="M445 1100 c-3 -5 -2 -10 4 -10 5 0 13 5 16 10 3 6 2 10 -4 10 -5 0
-13 -4 -16 -10z"/>
<path d="M920 864 c0 -8 5 -12 10 -9 6 3 10 10 10 16 0 5 -4 9 -10 9 -5 0 -10
-7 -10 -16z"/>
<path d="M900 819 c0 -5 5 -7 10 -4 6 3 10 8 10 11 0 2 -4 4 -10 4 -5 0 -10
-5 -10 -11z"/>
<path d="M99 1128 c-1 -2 -2 -22 -3 -46 -1 -27 1 -39 8 -32 13 13 18 80 6 80
-6 0 -10 -1 -11 -2z"/>
</g>
</svg>
